<?xml version="1.0" encoding="utf-8"?>
<!-- Generator: Adobe Illustrator 26.0.2, SVG Export Plug-In . SVG Version: 6.00 Build 0)  -->
<svg version="1.1" id="Layer_1" xmlns="http://www.w3.org/2000/svg" xmlns:xlink="http://www.w3.org/1999/xlink" x="0px" y="0px"
	 viewBox="0 0 100 100" style="enable-background:new 0 0 100 100;" xml:space="preserve">
<style type="text/css">
	.st0{fill:#34C6F4;}
	.st1{font-family:'MyriadPro-Regular';}
	.st2{font-size:21.2598px;}
</style>
<path class="st0" d="M50,17.5c-12.4,0-22.5,10.1-22.5,22.5S37.6,62.5,50,62.5S72.5,52.4,72.5,40S62.4,17.5,50,17.5z M54.7,53.5
	c-1.6,0.6-3.3,1.1-5.2,1.1c-2.5-0.2-4.2-1.8-3.9-4.3c0.2-2.5,1.1-4.7,1.6-7.2c0.2-1.1,0.6-2.1,0.6-3.3c0-1.5-0.6-1.8-1.8-1.8
	c-0.6,0-0.9,0.2-1.5,0.2c-0.3,0-0.9,0.6-0.9,0c-0.2-0.3,0-1.2,0.6-1.5c2.4-1.1,4.7-2,7.2-1.1c1.6,0.6,2.5,1.8,2.5,3.4
	c0,1.2-0.3,2.5-0.6,3.8c-0.6,2.1-1.2,4.2-1.6,6.3c-0.3,2.4,0.2,2.9,2.5,2.7c0.6,0,0.9-0.2,1.6-0.3C56,52.6,55.7,53.2,54.7,53.5z
	 M52.7,32.1c-2,0-3.6-1.5-3.6-3.3c0-2,1.6-3.4,3.6-3.4s3.6,1.6,3.6,3.4C56.5,30.7,54.8,32.1,52.7,32.1z"/>
<text transform="matrix(1 0 0 1 11.2972 86.2397)" class="st0 st1 st2">about us</text>
</svg>
