<?xml version="1.0" encoding="utf-8"?>
<!-- Generator: Adobe Illustrator 26.0.2, SVG Export Plug-In . SVG Version: 6.00 Build 0)  -->
<svg version="1.1" id="Layer_1" xmlns="http://www.w3.org/2000/svg" xmlns:xlink="http://www.w3.org/1999/xlink" x="0px" y="0px"
	 viewBox="0 0 100 100" style="enable-background:new 0 0 100 100;" xml:space="preserve">
<style type="text/css">
	.st0{fill:#34C6F4;}
	.st1{font-family:'MyriadPro-Regular';}
	.st2{font-size:17.0079px;}
	.st3{fill:#4ECDF5;}
</style>
<text transform="matrix(1 0 0 1 23.732 84.9916)" class="st0 st1 st2">article’s</text>
<g>
	<path class="st3" d="M66.3,25.5c-0.9-0.4-1.7-0.8-2.6-1.2c-3.1-1.5-6.2-2.9-9.3-4.4c-0.5-0.2-0.6-0.2-0.8,0.1
		c-2.1,3-4.6,5.7-7.3,8.3c-3.5,3.3-7.3,6.3-11.1,9.3c-0.2,0.2-0.3,0.4-0.3,0.6c0,2.7,0,5.4-0.3,8.1c-0.2,2.1-0.4,4.3-0.8,6.4
		c-0.3,1.6-0.6,3.2-1,4.7c-0.4,1.5-0.9,3-1.3,4.5c-0.1,0.2-0.1,0.3-0.4,0.3c-1.2,0.3-1.5,1.4-0.6,2.2c0,0,0,0,0,0c0,0,0.1,0,0.1,0
		l14.7-21.2c0,0,0-0.1,0-0.1c0,0,0,0,0,0c-0.8-0.6-0.9-1.5-0.4-2.1c0.5-0.7,1.6-0.9,2.6-0.6c1.2,0.4,1.9,1.3,1.6,2.2
		c-0.3,0.9-1.4,1.4-2.7,1.1c0,0,0,0,0,0c-0.1,0-0.1,0-0.2,0L31.6,64.9c0,0,0,0.1,0.1,0.1c0,0,0.1,0,0.1,0c1.3,0.2,2.2-0.6,1.9-1.6
		c0-0.1,0-0.2,0.1-0.3c1.1-1,2.2-1.9,3.4-2.9c2.9-2.3,6.1-4.4,9.5-6.3c3.3-1.9,6.7-3.6,10.3-5.3c0.2-0.1,0.4-0.3,0.4-0.5
		c0.5-1.6,1.1-3.3,1.6-4.9c0.6-1.7,1.1-3.4,1.7-5c0.5-1.4,1.1-2.8,1.6-4.2c0.5-1.2,1-2.3,1.6-3.4c0.8-1.6,1.7-3.2,2.7-4.7
		C66.7,25.8,66.6,25.6,66.3,25.5z"/>
	<path class="st3" d="M56.7,15c-0.6,1-1.1,2-1.8,3c-0.1,0.2,0,0.4,0.2,0.5c0.9,0.4,1.7,0.8,2.6,1.2c3.1,1.5,6.2,2.9,9.3,4.4
		c0.5,0.2,0.6,0.2,0.8-0.1c0.7-0.9,1.4-1.9,2.1-2.8L56.7,15z"/>
</g>
</svg>
