<?xml version="1.0" encoding="utf-8"?>
<!-- Generator: Adobe Illustrator 26.0.2, SVG Export Plug-In . SVG Version: 6.00 Build 0)  -->
<svg version="1.1" id="Layer_1" xmlns="http://www.w3.org/2000/svg" xmlns:xlink="http://www.w3.org/1999/xlink" x="0px" y="0px"
	 viewBox="0 0 100 100" style="enable-background:new 0 0 100 100;" xml:space="preserve">
<style type="text/css">
	.st0{fill:#34C6F4;}
	.st1{font-family:'MyriadPro-Regular';}
	.st2{font-size:21.2598px;}
	.st3{fill:#4ECDF5;}
</style>
<text transform="matrix(1 0 0 1 17.1648 86.2401)" class="st0 st1 st2">article’s</text>
<g>
	<path class="st3" d="M68.4,25.5c-1-0.4-1.9-0.8-2.9-1.2c-3.5-1.5-7-2.9-10.5-4.4c-0.6-0.2-0.7-0.2-0.9,0.1c-2.4,3-5.2,5.7-8.2,8.3
		c-3.9,3.3-8.2,6.3-12.5,9.3C33.1,37.8,33,38,33,38.2c0,2.7,0,5.4-0.3,8.1c-0.2,2.1-0.5,4.3-0.9,6.4c-0.3,1.6-0.7,3.2-1.1,4.7
		c-0.5,1.5-1,3-1.5,4.5c-0.1,0.2-0.1,0.3-0.5,0.3c-1.4,0.3-1.7,1.4-0.7,2.2l0,0h0.1l16.6-21.2v-0.1l0,0c-0.9-0.6-1-1.5-0.5-2.1
		c0.6-0.7,1.8-0.9,2.9-0.6c1.4,0.4,2.1,1.3,1.8,2.2c-0.3,0.9-1.6,1.4-3,1.1l0,0c-0.1,0-0.1,0-0.2,0L29.3,64.9c0,0,0,0.1,0.1,0.1h0.1
		c1.5,0.2,2.5-0.6,2.1-1.6c0-0.1,0-0.2,0.1-0.3c1.2-1,2.5-1.9,3.8-2.9c3.3-2.3,6.9-4.4,10.7-6.3c3.7-1.9,7.6-3.6,11.6-5.3
		c0.2-0.1,0.5-0.3,0.5-0.5c0.6-1.6,1.2-3.3,1.8-4.9c0.7-1.7,1.2-3.4,1.9-5c0.6-1.4,1.2-2.8,1.8-4.2c0.6-1.2,1.1-2.3,1.8-3.4
		c0.9-1.6,1.9-3.2,3-4.7C68.8,25.8,68.7,25.6,68.4,25.5z"/>
	<path class="st3" d="M57.6,15c-0.7,1-1.2,2-2,3c-0.1,0.2,0,0.4,0.2,0.5c1,0.4,1.9,0.8,2.9,1.2c3.5,1.5,7,2.9,10.5,4.4
		c0.6,0.2,0.7,0.2,0.9-0.1c0.8-0.9,1.6-1.9,2.4-2.8L57.6,15z"/>
</g>
</svg>
