<?xml version="1.0" encoding="utf-8"?>
<!-- Generator: Adobe Illustrator 26.0.2, SVG Export Plug-In . SVG Version: 6.00 Build 0)  -->
<svg version="1.1" id="Layer_1" xmlns="http://www.w3.org/2000/svg" xmlns:xlink="http://www.w3.org/1999/xlink" x="0px" y="0px"
	 viewBox="0 0 100 100" style="enable-background:new 0 0 100 100;" xml:space="preserve">
<style type="text/css">
	.st0{fill:#34C6F4;}
	.st1{font-family:'MyriadPro-Regular';}
	.st2{font-size:17.0079px;}
</style>
<g>
	<path class="st0" d="M45.8,20.2c4.7,0,12,0,16.7,0c0.6,0,1,0,1.6,0.2c0.5,0.1,0.9,0.3,1.4,0.5c0.5,0.2,0.8,0.5,1.3,0.7
		c0.4,0.3,0.8,0.6,1.1,0.9c0.4,0.4,0.7,0.7,0.9,1.1c0.3,0.4,0.6,0.8,0.7,1.3c0.2,0.5,0.3,0.9,0.5,1.4c0.1,0.6,0.2,1,0.2,1.6v15.9
		c0,0.6,0,1-0.2,1.6c-0.1,0.6-0.3,0.9-0.5,1.4c-0.2,0.5-0.5,0.8-0.7,1.3c-0.3,0.4-0.6,0.8-0.9,1.1l0,0c-0.4,0.4-0.8,0.7-1.2,0.9
		c-0.4,0.3-0.8,0.6-1.3,0.7c-0.5,0.2-0.9,0.3-1.4,0.5c-0.5,0.1-1,0.2-1.6,0.2h-5.8c-0.2,0-0.4,0-0.6,0.1c-0.2,0.1-0.3,0.2-0.4,0.3
		l0,0c-0.5,0.6-0.9,1.2-1.5,1.8c-0.6,0.6-1,1.1-1.6,1.6c-0.6,0.6-1.1,1-1.8,1.5c-0.6,0.5-1.2,0.9-1.9,1.3c-0.6,0.4-1.3,0.8-2,1.1
		c-0.7,0.4-1.3,0.7-2.1,1c-0.1,0-0.2,0-0.3,0c-0.1-0.1-0.2-0.3-0.1-0.4c0.1-0.3,0.3-0.5,0.4-0.7c0.1-0.2,0.3-0.5,0.3-0.7l0,0
		c0.2-0.5,0.4-0.8,0.6-1.3s0.4-0.9,0.6-1.4c0.2-0.5,0.3-0.9,0.5-1.4c0.2-0.5,0.3-0.9,0.4-1.4c0-0.2,0.1-0.3,0.1-0.5
		c0-0.3-0.1-0.6-0.4-0.8l0,0c-0.2-0.2-0.6-0.4-0.8-0.4h-6.6c-0.6,0-1,0-1.6-0.2c-0.5-0.1-0.9-0.3-1.4-0.4l0,0
		c-0.5-0.2-0.8-0.4-1.3-0.7s-0.8-0.7-1.2-1l0,0c-0.4-0.4-0.7-0.7-0.9-1.1c-0.3-0.4-0.6-0.8-0.7-1.3s-0.3-0.9-0.5-1.4
		c-0.1-0.6-0.2-1-0.2-1.6V33.7c0-1.6-2.1-1.6-2.4-0.5v10.6c0,0.7,0.1,1.3,0.2,2.1c0.1,0.7,0.3,1.3,0.6,2c0.3,0.6,0.6,1.1,0.9,1.7
		c0.4,0.6,0.8,1,1.3,1.6c0.5,0.5,1,0.9,1.6,1.3c0.6,0.4,1.1,0.7,1.7,0.9l0,0c0.6,0.3,1.2,0.5,1.9,0.6s1.3,0.2,2,0.2h4.9h0.1
		c0.2,0,0.3,0.2,0.2,0.4l0,0c-0.1,0.3-0.2,0.6-0.3,0.9l0,0c-0.2,0.5-0.3,0.8-0.5,1.3c-0.2,0.4-0.4,0.8-0.6,1.2c0,0,0,0,0,0.1
		c-0.2,0.4-0.4,0.8-0.6,1.2c-0.2,0.4-0.5,0.7-0.8,1.1c-0.3,0.4-0.7,0.7-1,1.1l0,0c-0.4,0.4-0.7,0.7-1.2,1.1
		c-0.3,0.3-0.4,0.6-0.4,0.8c0,0.3,0.1,0.6,0.3,0.8s0.4,0.3,0.6,0.4c0.2,0.1,0.5,0.1,0.7,0c0.8-0.3,1.8-0.6,2.6-0.8
		c0.8-0.3,1.7-0.6,2.4-0.9c0.7-0.4,1.6-0.7,2.3-1.1c0.7-0.4,1.5-0.8,2.2-1.3l0,0c0.7-0.5,1.4-0.9,2.1-1.5c0.7-0.6,1.3-1,1.9-1.6l0,0
		c0.6-0.5,1-1,1.5-1.5c0.5-0.6,0.9-1,1.4-1.6c0-0.1,0.1-0.1,0.3-0.1h5.1c0.7,0,1.3-0.1,2-0.2c0.7-0.1,1.3-0.3,1.9-0.6l0,0
		c0.6-0.3,1.1-0.6,1.7-0.9c0.6-0.4,1-0.8,1.6-1.3s0.9-1,1.3-1.6c0.4-0.6,0.7-1.1,0.9-1.7c0.3-0.6,0.5-1.2,0.6-2
		c0.1-0.7,0.2-1.3,0.2-2.1V28.1c0-0.7-0.1-1.3-0.2-2.1c-0.1-0.7-0.3-1.3-0.6-2c-0.3-0.6-0.6-1.1-0.9-1.7c-0.3-0.6-0.8-1-1.3-1.6
		c-0.5-0.5-1-0.9-1.6-1.3c-0.6-0.4-1.1-0.7-1.7-0.9l0,0c-0.6-0.3-1.2-0.5-1.9-0.6c-0.7-0.1-1.3-0.2-2-0.2c-4.9,0-12.3,0-17.2,0
		C44.1,18.1,44,20.2,45.8,20.2L45.8,20.2L45.8,20.2z M37.1,31c0.7,0.3,1.5,0.5,2.2,0.7c0.7,0.3,1.5,0.6,2.2,0.7
		c1.8,0.6,2.8,0.9,3,0.9s0.1-0.7-0.4-2.6l-1.4-5.5l-0.1-0.1L37.1,31L37.1,31L37.1,31L37.1,31L37.1,31z M40.7,23.1l-7.2-7.9
		c-0.3-0.2-0.5-0.3-0.7-0.1l-5.1,5c-0.2,0.3-0.3,0.6,0,0.8l7.3,8L40.7,23.1L40.7,23.1L40.7,23.1z M44.1,44.8c-0.7,0-1.1-0.5-1.1-1.1
		c0-0.7,0.5-1.1,1.1-1.1l9.8-0.2l2.2-0.2c0.7,0,1.1,0.5,1.2,1c0,0.7-0.5,1.1-1,1.2l-2.2,0.2C54.1,44.6,45.1,44.8,44.1,44.8
		L44.1,44.8L44.1,44.8z M47.6,37.6c-0.7,0-1.1-0.6-1.1-1.1c0-0.7,0.6-1.1,1.1-1.1h14.1c0.7,0,1.1,0.6,1.1,1.1c0,0.7-0.6,1.1-1.1,1.1
		H47.6L47.6,37.6L47.6,37.6z M52.6,30.7c-0.7,0-1.1-0.6-1.1-1.1c0-0.6,0.6-1.1,1.1-1.1h9.1c0.7,0,1.1,0.6,1.1,1.1
		c0,0.7-0.6,1.1-1.1,1.1H52.6L52.6,30.7L52.6,30.7z"/>
</g>
<text transform="matrix(1 0 0 1 13.6119 84.9919)" class="st0 st1 st2">commend</text>
</svg>
