<?xml version="1.0" encoding="utf-8"?>
<!-- Generator: Adobe Illustrator 26.0.2, SVG Export Plug-In . SVG Version: 6.00 Build 0)  -->
<svg version="1.1" id="Layer_1" xmlns="http://www.w3.org/2000/svg" xmlns:xlink="http://www.w3.org/1999/xlink" x="0px" y="0px"
	 viewBox="0 0 100 100" style="enable-background:new 0 0 100 100;" xml:space="preserve">
<style type="text/css">
	.st0{fill:#34C6F4;}
	.st1{font-family:'MyriadPro-Regular';}
	.st2{font-size:21.2598px;}
</style>
<text transform="matrix(1 0 0 1 18.6953 86.2399)" class="st0 st1 st2">creator</text>
<g>
	<path class="st0" d="M25,64.7c0.3-0.6,0.7-1.3,1-1.9c2.6-4.9,5.2-9.8,7.8-14.7c0.4-0.8,0.9-1.4,1.5-2c8.1-8.1,16.3-16.2,24.4-24.4
		c0.5-0.5,0.5-0.5,1,0c2.6,2.6,5.3,5.3,7.9,7.9c0.5,0.5,0.5,0.5,0,1c-8.1,8.1-16.2,16.1-24.2,24.3c-1.1,1.1-2.5,1.7-3.8,2.4
		c-4.8,2.4-9.5,4.7-14.3,7.1c-0.4,0.2-0.7,0.3-1.1,0.5C25.1,64.8,25,64.7,25,64.7z M42.8,50.9c0,0.8,0.8,1.3,1.5,1
		c0.3-0.1,0.5-0.3,0.7-0.5c4-4,8-8,12-12c2.7-2.7,5.4-5.4,8-8c0.6-0.6,0.7-1.2,0.2-1.7c-0.5-0.5-1-0.5-1.7,0.1
		c-0.6,0.6-1.2,1.2-1.8,1.7c-1.3,1.3-2.5,2.5-3.8,3.8c-1.2,1.2-2.4,2.4-3.7,3.7c-1.3,1.3-2.5,2.5-3.8,3.8c-1.2,1.2-2.5,2.5-3.7,3.7
		c-1.2,1.2-2.4,2.4-3.6,3.6C42.9,50.3,42.7,50.6,42.8,50.9z M35.8,48.7c-0.2,0-0.2,0.1-0.2,0.2c-0.1,0.3-0.3,0.5-0.4,0.8
		c-0.8,1.6-1.7,3.2-2.5,4.8c-0.1,0.2-0.3,0.4,0.2,0.5c1.6,0.2,2.1,0.7,2.4,2.2c0.1,0.3,0.1,0.4,0.4,0.2c1.9-0.9,3.7-1.8,5.6-2.8
		c0.3-0.1,0.3-0.3,0.1-0.5c-1.8-1.7-3.5-3.5-5.3-5.2C36,48.8,35.9,48.7,35.8,48.7z"/>
	<path class="st0" d="M73.6,18.9c-0.7-0.8-1.5-1.5-2.3-2.3c-0.9-0.9-2-1.4-3.8-1.4c-0.7,0-1.8,0.4-2.7,1.2c-1.1,1-2.1,2.1-3.2,3.2
		c-0.3,0.3-0.2,0.4,0,0.7c2.7,2.7,5.5,5.5,8.2,8.2c0.3,0.3,0.4,0.3,0.7,0c0.9-1,1.9-1.9,2.9-2.9C75.5,23.7,75.5,21,73.6,18.9z"/>
</g>
</svg>
