<?xml version="1.0" encoding="utf-8"?>
<!-- Generator: Adobe Illustrator 26.0.2, SVG Export Plug-In . SVG Version: 6.00 Build 0)  -->
<svg version="1.1" id="Layer_1" xmlns="http://www.w3.org/2000/svg" xmlns:xlink="http://www.w3.org/1999/xlink" x="0px" y="0px"
	 viewBox="0 0 100 100" style="enable-background:new 0 0 100 100;" xml:space="preserve">
<style type="text/css">
	.st0{fill:#34C6F4;}
	.st1{font-family:'MyriadPro-Regular';}
	.st2{font-size:21.2598px;}
	.st3{fill:#4ECDF5;}
</style>
<text transform="matrix(1 0 0 1 23.7659 86.2396)" class="st0 st1 st2">hiring</text>
<g>
	<path class="st3" d="M27.5,30.9c0-3.3,1.1-6.2,3.2-8.7c2.1-2.4,4.7-3.9,7.9-4.4c2.7-0.5,5.4-0.1,7.9,1.1c3.8,1.8,6.2,4.8,7.2,8.9
		c0.2,0.8,0.3,1.7,0.3,2.6c0.1,3-0.7,5.8-2.5,8.2c-0.2,0.2-0.3,0.4-0.5,0.6c-0.1,0.1-0.1,0.2,0,0.2c1.5,1.5,2.9,2.9,4.4,4.4
		c0.2,0.2,0.3,0.3,0.6,0.2c0.8-0.1,1.5,0.1,2.1,0.7c4.4,4.4,8.8,8.8,13.3,13.3c0.8,0.8,1.1,1.9,0.6,3c-0.4,0.9-1.2,1.4-2.2,1.5
		c-0.8,0-1.4-0.3-2-0.8c-4.4-4.4-8.8-8.8-13.3-13.3c-0.7-0.7-0.9-1.5-0.7-2.4c0-0.1,0-0.2-0.1-0.3c-1.5-1.5-3.1-3.1-4.6-4.6
		C49,41,49,41,48.9,41.1c-1.2,1-2.6,1.8-4.1,2.3c-1,0.4-2.1,0.6-3.2,0.7c-1.8,0.1-3.5-0.1-5.2-0.6c-1.7-0.5-3.2-1.4-4.5-2.5
		c-1.4-1.2-2.5-2.6-3.3-4.2c-0.7-1.4-1.2-2.9-1.3-4.4C27.5,32,27.5,31.4,27.5,30.9z M40.9,41.6c6,0,10.8-4.8,10.7-10.9
		c-0.1-5.8-4.8-10.6-10.8-10.6S30,24.9,30.1,30.9C30.1,36.9,35,41.6,40.9,41.6z"/>
	<path class="st3" d="M40.6,21.3c0.1,0,0.1,0,0.2,0c0.4,0,0.7,0.3,0.7,0.6c0,0.4-0.3,0.7-0.7,0.7c-0.5,0-1,0-1.5,0.1
		c-1.6,0.3-3,1-4.2,2.1c-0.2,0.2-0.4,0.4-0.6,0.6c-0.3,0.3-0.7,0.3-0.9,0.1c-0.3-0.2-0.3-0.7,0-0.9c1.5-1.7,3.4-2.8,5.7-3.2
		c0.2,0,0.4-0.1,0.6-0.1C40.2,21.3,40.4,21.3,40.6,21.3z"/>
	<path class="st3" d="M33.1,27.8c0,0.1,0,0.2,0,0.2c-0.3,0.9-0.5,1.8-0.5,2.8c0,0.5-0.4,0.8-0.9,0.7c-0.3-0.1-0.5-0.3-0.5-0.6
		c0-1.1,0.2-2.2,0.6-3.3c0.1-0.3,0.4-0.5,0.7-0.4C32.9,27.2,33.1,27.5,33.1,27.8z"/>
</g>
</svg>
