<?xml version="1.0" encoding="utf-8"?>
<!-- Generator: Adobe Illustrator 26.0.2, SVG Export Plug-In . SVG Version: 6.00 Build 0)  -->
<svg version="1.1" id="Layer_1" xmlns="http://www.w3.org/2000/svg" xmlns:xlink="http://www.w3.org/1999/xlink" x="0px" y="0px"
	 viewBox="0 0 500 120" style="enable-background:new 0 0 500 120;" xml:space="preserve">
<style type="text/css">
	.st0{fill:#34C6F4;}
	.st1{fill:#FFFFFF;}
	.st2{fill:#4C4B4C;}
</style>
<g>
	<g>
		<g>
			<path class="st0" d="M107.6,115H27.4c-8.2,0-14.9-6.7-14.9-14.9V19.9C12.5,11.7,19.2,5,27.4,5h80.1c8.2,0,14.9,6.7,14.9,14.9
				v80.1C122.5,108.3,115.8,115,107.6,115z"/>
			<g>
				<g>
					<rect x="85.3" y="47" class="st1" width="11.2" height="42.8"/>
					<polygon class="st1" points="48,89.9 59.8,69.4 73.4,89.9 					"/>
					<polygon class="st1" points="64.3,30.2 51.3,40.3 40.2,59.5 33.9,70.4 22.7,89.9 33.9,89.9 35.7,89.9 52.8,60.2 64.3,40.3 
											"/>
					<polygon class="st1" points="75.6,30.1 75.6,40.3 106.5,40.3 109.7,34.6 112.3,30.1 					"/>
				</g>
			</g>
		</g>
	</g>
	<path class="st2" d="M162.6,80.5l5.9,0.9c0.2,1.8,0.9,3.2,2.1,4c1.5,1.1,3.6,1.7,6.2,1.7c2.8,0,5-0.5,6.5-1.7
		c1.5-1.1,2.6-2.7,3.1-4.7c0.3-1.2,0.5-3.9,0.4-7.8c-2.6,3.1-6,4.7-9.9,4.7c-4.9,0-8.8-1.8-11.5-5.3s-4.1-7.8-4.1-12.8
		c0-3.4,0.6-6.6,1.9-9.5c1.2-2.9,3-5.1,5.4-6.7s5.1-2.4,8.3-2.4c4.2,0,7.7,1.7,10.5,5.1v-4.3h5.6v31c0,5.6-0.6,9.5-1.7,11.9
		c-1.1,2.3-2.9,4.2-5.4,5.5c-2.5,1.4-5.5,2-9.1,2c-4.3,0-7.8-1-10.4-2.9C163.8,87.2,162.5,84.3,162.6,80.5z M167.6,58.9
		c0,4.7,0.9,8.1,2.8,10.3c1.9,2.2,4.2,3.2,7,3.2s5.1-1.1,7-3.2c1.9-2.1,2.8-5.5,2.8-10.1c0-4.4-1-7.7-2.9-9.9
		c-1.9-2.2-4.3-3.3-7-3.3c-2.7,0-5,1.1-6.9,3.3C168.6,51.3,167.6,54.6,167.6,58.9z"/>
	<path class="st2" d="M200,59.5c0-6.7,1.8-11.6,5.5-14.8c3.1-2.6,6.9-4,11.3-4c4.9,0,9,1.6,12.1,4.9c3.1,3.2,4.7,7.7,4.7,13.4
		c0,4.6-0.7,8.3-2.1,10.9c-1.4,2.6-3.4,4.7-6,6.2c-2.6,1.5-5.5,2.2-8.7,2.2c-5,0-9.1-1.6-12.2-4.8C201.5,70.2,200,65.6,200,59.5z
		 M206.2,59.5c0,4.6,1,8,3,10.3c2,2.3,4.5,3.4,7.6,3.4c3,0,5.5-1.2,7.5-3.4c2-2.3,3-5.8,3-10.5c0-4.4-1-7.8-3-10.1
		c-2-2.3-4.5-3.4-7.5-3.4c-3,0-5.6,1.1-7.6,3.4C207.2,51.5,206.2,54.9,206.2,59.5z"/>
	<path class="st2" d="M254,72l0.9,5.4c-1.7,0.4-3.2,0.5-4.6,0.5c-2.2,0-3.9-0.4-5.1-1.1c-1.2-0.7-2.1-1.6-2.6-2.8
		c-0.5-1.1-0.7-3.5-0.7-7.2V46.3h-4.5v-4.7h4.5v-8.9l6-3.7v12.5h6.1v4.7h-6.1v21c0,1.8,0.1,2.8,0.3,3.3c0.2,0.5,0.5,0.9,1.1,1.2
		c0.5,0.3,1.2,0.4,2.1,0.4C252,72.3,252.9,72.2,254,72z"/>
	<path class="st0" d="M283.4,73.1c-2.3,1.9-4.4,3.3-6.5,4.1c-2.1,0.8-4.3,1.2-6.7,1.2c-3.9,0-7-1-9.1-2.9c-2.1-1.9-3.2-4.4-3.2-7.4
		c0-1.8,0.4-3.3,1.2-4.8c0.8-1.4,1.8-2.6,3.2-3.5c1.3-0.9,2.8-1.6,4.4-2c1.2-0.3,3-0.6,5.4-0.9c4.9-0.6,8.5-1.3,10.9-2.1
		c0-0.8,0-1.4,0-1.6c0-2.5-0.6-4.2-1.7-5.2c-1.6-1.4-3.9-2.1-6.9-2.1c-2.8,0-5,0.5-6.3,1.5s-2.4,2.8-3,5.3l-6-0.8
		c0.5-2.5,1.4-4.6,2.7-6.2c1.2-1.6,3-2.8,5.4-3.6c2.3-0.9,5.1-1.3,8.1-1.3c3.1,0,5.6,0.4,7.5,1.1c1.9,0.7,3.3,1.6,4.2,2.7
		c0.9,1.1,1.5,2.5,1.9,4.1c0.2,1.1,0.3,2.9,0.3,5.6v8.1c0,5.6,0.1,9.2,0.4,10.7c0.3,1.5,0.8,2.9,1.5,4.3h-6.3
		C284,76.2,283.6,74.8,283.4,73.1z M282.9,59.5c-2.2,0.9-5.5,1.7-9.9,2.3c-2.5,0.4-4.3,0.8-5.3,1.2c-1.1,0.5-1.8,1.1-2.4,2
		c-0.5,0.9-0.9,1.8-0.9,2.9c0,1.6,0.6,3,1.8,4.1c1.2,1.1,3,1.6,5.4,1.6c2.3,0,4.4-0.5,6.3-1.5c1.8-1,3.2-2.4,4-4.2
		c0.7-1.4,1-3.4,1-6.1L282.9,59.5L282.9,59.5z"/>
	<path class="st0" d="M311.7,72l0.9,5.4c-1.7,0.4-3.2,0.5-4.6,0.5c-2.2,0-3.9-0.4-5.1-1.1s-2.1-1.6-2.6-2.8
		c-0.5-1.1-0.7-3.5-0.7-7.2V46.3h-4.5v-4.7h4.5v-8.9l6-3.7v12.5h6.1v4.7h-6.1v21c0,1.8,0.1,2.8,0.3,3.3c0.2,0.5,0.5,0.9,1.1,1.2
		c0.5,0.3,1.2,0.4,2.1,0.4C309.7,72.3,310.6,72.2,311.7,72z"/>
	<path class="st2" d="M319.4,77.5v-6.9h6.9v6.9H319.4z"/>
	<path class="st2" d="M336.9,77.5V41.6h5.5v5c1.1-1.8,2.6-3.2,4.5-4.2c1.9-1.1,4-1.6,6.4-1.6c2.6,0,4.8,0.5,6.5,1.7
		c1.7,1.1,2.9,2.6,3.6,4.6c2.8-4.2,6.5-6.3,11.1-6.3c3.5,0,6.3,1,8.2,3c1.9,2,2.9,5,2.9,9.1v24.6h-6V54.9c0-2.4-0.2-4.2-0.6-5.3
		c-0.4-1.1-1.1-1.9-2.1-2.6c-1.1-0.7-2.3-1-3.7-1c-2.5,0-4.6,0.9-6.3,2.5c-1.7,1.7-2.5,4.4-2.5,8.1v20.8h-6.1V54.2
		c0-2.7-0.5-4.7-1.5-6.1c-1-1.4-2.6-2-4.9-2c-1.7,0-3.3,0.5-4.8,1.4s-2.5,2.2-3.2,4c-0.7,1.8-1,4.2-1,7.5v18.6h-6.2V77.5z"/>
	<path class="st2" d="M394.3,91.3l-0.7-5.7c1.3,0.4,2.5,0.5,3.5,0.5c1.4,0,2.4-0.2,3.2-0.7c0.8-0.5,1.5-1.1,2-1.9
		c0.4-0.6,1-2.1,1.9-4.5c0.1-0.4,0.3-0.8,0.5-1.5l-13.6-36h6.6l7.5,20.8c1,2.6,1.8,5.4,2.6,8.3c0.7-2.8,1.5-5.5,2.5-8.2l7.7-20.9
		h6.1l-13.7,36.5c-1.5,3.9-2.6,6.7-3.4,8.1c-1.1,2-2.3,3.5-3.7,4.4c-1.4,0.9-3.1,1.4-5,1.4C397,92.1,395.7,91.8,394.3,91.3z"/>
	<path class="st2" d="M425.7,77.5v-6.9h6.9v6.9H425.7z"/>
	<path class="st2" d="M443.3,35v-7h6.1v7H443.3z M443.3,77.5V41.6h6.1v35.9H443.3z"/>
	<path class="st2" d="M481.9,77.5V73c-2.3,3.5-5.6,5.3-10,5.3c-2.8,0-5.5-0.8-7.9-2.4c-2.4-1.6-4.2-3.8-5.6-6.6
		c-1.3-2.8-2-6.1-2-9.7c0-3.6,0.6-6.8,1.8-9.7c1.2-2.9,3-5.1,5.4-6.7c2.4-1.6,5.1-2.3,8-2.3c2.2,0,4.1,0.5,5.8,1.4s3.1,2.1,4.1,3.6
		V27.9h6v49.5H481.9z M462.7,59.6c0,4.6,1,8,2.9,10.3c1.9,2.3,4.2,3.4,6.9,3.4c2.6,0,4.9-1.1,6.8-3.3c1.9-2.2,2.8-5.5,2.8-10
		c0-4.9-0.9-8.5-2.8-10.8c-1.9-2.3-4.2-3.4-7-3.4c-2.7,0-4.9,1.1-6.8,3.3C463.6,51.4,462.7,54.8,462.7,59.6z"/>
</g>
</svg>
