<?xml version="1.0" encoding="utf-8"?>
<!-- Generator: Adobe Illustrator 26.0.2, SVG Export Plug-In . SVG Version: 6.00 Build 0)  -->
<svg version="1.1" id="Layer_1" xmlns="http://www.w3.org/2000/svg" xmlns:xlink="http://www.w3.org/1999/xlink" x="0px" y="0px"
	 viewBox="0 0 100 100" style="enable-background:new 0 0 100 100;" xml:space="preserve">
<style type="text/css">
	.st0{fill:#34C6F4;}
	.st1{font-family:'MyriadPro-Regular';}
	.st2{font-size:17.0079px;}
	.st3{fill:#4ECDF5;}
</style>
<text transform="matrix(1 0 0 1 24.9304 84.9915)" class="st0 st1 st2">market</text>
<g>
	<path class="st3" d="M70,17.5c-0.9,0-1.9,0-2.8,0c-1,0-1.8,0.5-2.1,1.5c-0.5,1.5-1,3-1.5,4.5c-0.1,0.4-0.4,0.6-0.8,0.6
		c-11.6,0-23.3,0-34.9,0c-0.3,0-0.6,0-1,0.1c-1.2,0.2-2,1.3-1.7,2.5c0.7,3.4,1.5,6.8,2.3,10.3c0.6,2.5,1.1,5,1.7,7.4
		c0.3,1.3,0.9,1.9,2.3,2c2.8,0.3,5.5,0.7,8.3,1c2.7,0.3,5.5,0.7,8.2,1c2.8,0.3,5.5,0.7,8.3,1c0.5,0.1,1.1,0.1,1.6,0.2
		c1,0.1,1.9-0.5,2.3-1.7c0.9-2.5,1.7-5.1,2.6-7.6c1.9-5.6,3.8-11.1,5.6-16.7c0.2-0.5,0.3-0.9,0.5-1.4c0.1-0.3,0.3-0.4,0.6-0.4
		c1.3,0,2.5,0,3.8,0c0.9,0,1.5-0.4,1.9-1.2c0.4-0.8,0.3-1.6-0.2-2.3c-0.4-0.5-1-0.8-1.6-0.8C71.9,17.5,70.9,17.5,70,17.5
		C70,17.5,70,17.5,70,17.5z M45.8,28.4c1.6,0,3.2,0,4.8,0c3.6,0,7.1,0,10.7,0c0.6,0,0.6,0,0.4,0.5c-0.3,1-0.7,2-1,2.9
		c-1.4,4.2-2.9,8.5-4.3,12.7c-0.1,0.3-0.2,0.5-0.6,0.5c-1.7-0.2-3.4-0.4-5.1-0.6c-3-0.4-5.9-0.7-8.9-1.1c-2.8-0.3-5.6-0.7-8.4-1
		c-0.4,0-0.6-0.2-0.6-0.6c-0.9-4.2-1.9-8.4-2.8-12.6c-0.2-0.8-0.2-0.8,0.6-0.8C35.7,28.4,40.8,28.4,45.8,28.4z"/>
	<path class="st3" d="M59.1,62.5c2.6,0,5.1-1.9,5.1-5c0-3-2.4-5.1-5.1-5.1c-2.8,0-5.1,2.3-5.1,5.1C54,60.2,56.3,62.5,59.1,62.5z"/>
	<path class="st3" d="M38.7,57.4c0-2.8-2.3-5-5.1-5c-2.8,0-5.1,2.3-5.1,5.1c0,2.8,2.3,5,5.2,5C36.5,62.5,38.7,60.2,38.7,57.4z"/>
</g>
</svg>
