<?xml version="1.0" encoding="utf-8"?>
<!-- Generator: Adobe Illustrator 26.0.2, SVG Export Plug-In . SVG Version: 6.00 Build 0)  -->
<svg version="1.1" id="Layer_1" xmlns="http://www.w3.org/2000/svg" xmlns:xlink="http://www.w3.org/1999/xlink" x="0px" y="0px"
	 viewBox="0 0 100 100" style="enable-background:new 0 0 100 100;" xml:space="preserve">
<style type="text/css">
	.st0{fill:#34C6F4;}
	.st1{font-family:'MyriadPro-Regular';}
	.st2{font-size:21.2598px;}
	.st3{fill:#4ECDF5;}
</style>
<text transform="matrix(1 0 0 1 18.6633 86.2401)" class="st0 st1 st2">market</text>
<g>
	<path class="st3" d="M68,19.8c-0.9,0-1.7,0-2.6,0c-0.9,0-1.6,0.5-1.9,1.3c-0.5,1.4-0.9,2.7-1.4,4.1c-0.1,0.4-0.3,0.5-0.7,0.5
		c-10.5,0-21,0-31.5,0c-0.3,0-0.6,0-0.9,0.1c-1.1,0.2-1.8,1.2-1.6,2.2c0.7,3.1,1.4,6.2,2,9.2c0.5,2.2,1,4.5,1.5,6.7
		c0.3,1.2,0.8,1.7,2.1,1.8c2.5,0.3,5,0.6,7.5,0.9c2.5,0.3,4.9,0.6,7.4,0.9c2.5,0.3,5,0.6,7.4,0.9c0.5,0.1,0.9,0.1,1.4,0.2
		c0.9,0.1,1.7-0.5,2-1.5c0.8-2.3,1.5-4.6,2.3-6.9c1.7-5,3.4-10,5.1-15c0.1-0.4,0.3-0.8,0.4-1.3c0.1-0.3,0.2-0.4,0.5-0.4
		c1.1,0,2.3,0,3.4,0c0.8,0,1.4-0.4,1.7-1.1c0.4-0.7,0.3-1.4-0.2-2c-0.4-0.5-0.9-0.7-1.5-0.7C69.7,19.7,68.8,19.8,68,19.8
		C68,19.8,68,19.8,68,19.8z M46.3,29.6c1.4,0,2.9,0,4.3,0c3.2,0,6.4,0,9.6,0c0.5,0,0.5,0,0.3,0.5c-0.3,0.9-0.6,1.8-0.9,2.7
		c-1.3,3.8-2.6,7.6-3.9,11.5c-0.1,0.3-0.2,0.5-0.5,0.4c-1.5-0.2-3.1-0.4-4.6-0.6c-2.7-0.3-5.3-0.7-8-1c-2.5-0.3-5-0.6-7.5-0.9
		c-0.4,0-0.5-0.2-0.6-0.6c-0.8-3.8-1.7-7.5-2.5-11.3c-0.2-0.7-0.2-0.7,0.6-0.7C37.1,29.6,41.7,29.6,46.3,29.6z"/>
	<path class="st3" d="M58.2,60.2c2.3,0,4.6-1.7,4.6-4.5c0-2.7-2.1-4.6-4.6-4.6c-2.6,0-4.6,2-4.6,4.5C53.6,58.2,55.6,60.2,58.2,60.2z
		"/>
	<path class="st3" d="M39.8,55.7c0-2.5-2-4.5-4.6-4.5c-2.5,0-4.6,2.1-4.6,4.6c0,2.5,2.1,4.5,4.7,4.5C37.8,60.2,39.8,58.2,39.8,55.7z
		"/>
</g>
</svg>
