<?xml version="1.0" encoding="utf-8"?>
<!-- Generator: Adobe Illustrator 26.0.2, SVG Export Plug-In . SVG Version: 6.00 Build 0)  -->
<svg version="1.1" id="Layer_1" xmlns="http://www.w3.org/2000/svg" xmlns:xlink="http://www.w3.org/1999/xlink" x="0px" y="0px"
	 viewBox="0 0 100 100" style="enable-background:new 0 0 100 100;" xml:space="preserve">
<style type="text/css">
	.st0{fill:#34C6F4;}
	.st1{font-family:'MyriadPro-Regular';}
	.st2{font-size:21.2598px;}
</style>
<text transform="matrix(1 0 0 1 13.1574 86.2394)" class="st0 st1 st2">live chat</text>
<path class="st0" d="M70.1,49.5c-1.2,1.3-2.5,2.1-4.3,2.3c-1.1,0.2-2,0-3.1-0.1c-0.4,0-0.7-0.3-0.8-0.7c0-0.1,0-0.3,0-0.3
	c0-4.9,0-9.8,0-14.7c0-0.8,0.3-1,1.2-1.1c1.9-0.3,3.7,0.1,5.5,0.5c0.5,0.1,0.5,0.1,0.6-0.3c0-0.1,0-0.2,0.1-0.3
	c0.4-0.2,0.3-0.4,0.2-0.7c-0.2-2.4-0.9-4.7-2.1-6.8c-0.1-0.2-0.2-0.3-0.5-0.3c-0.5,0-0.7-0.3-1-0.6c-1.9-2.7-4.5-4.7-7.6-6.1
	c-8.5-3.7-18.9-1.1-24,6C34,26.6,33.7,27,33,27c-0.2,0-0.2,0.1-0.3,0.3c-1,1.6-1.7,3.4-1.9,5.2c-0.1,0.6-0.2,1.3-0.3,1.9
	c0,0.2,0,0.3,0.2,0.3c0.2,0.1,0.2,0.3,0.2,0.4c-0.1,0.3,0.2,0.3,0.5,0.3c0.7-0.2,1.3-0.3,1.9-0.4c1.4-0.3,2.6-0.2,4-0.1
	c0.5,0,0.8,0.3,0.8,0.8c0,0.1,0,0.2,0,0.3c0,4.8,0,9.8,0,14.6c0,0.8-0.3,1.1-1.2,1.1c-1.1,0.1-2.1,0.2-3.2,0c-1.6-0.3-2.7-1-3.6-2.3
	c-0.7-1-1.4-1.8-2-2.8c-0.4-0.5-0.6-1.1-0.6-1.8c0-1.4,0-2.7,0-4.1c0-0.7,0.2-1.4,0.7-1.9c0.6-0.7,0.8-1.5,0.8-2.3c0-0.5,0-1,0-1.5
	c0-0.2,0-0.3,0.1-0.4c0.3-0.2,0.3-0.4,0.3-0.7c0.5-6.5,3.4-11.9,9.4-15.7c7.7-4.8,18-4.1,24.8,1.8c3.9,3.4,6.1,7.6,6.8,12.5
	c0.1,0.5,0.1,1,0.2,1.5c0,0.3,0,0.5,0.3,0.7c0.2,0.1,0.1,0.3,0.1,0.4c0,0.5,0,1,0,1.6c0,0.8,0.2,1.5,0.7,2.1
	c0.5,0.7,0.8,1.4,0.8,2.2c0,1.3,0,2.6,0,3.9c0,0.6-0.2,1.2-0.5,1.7s-0.5,1.1-0.5,1.8c0,1.2,0.1,2.3,0,3.5s-0.6,2.3-1.4,3.4
	c-1.5,1.8-3,3.7-4.6,5.5s-3.7,2.8-6.3,2.8c-0.2,0-0.4,0-0.6,0c-0.3,0-0.5,0.1-0.7,0.3c-0.4,0.7-1.1,1-1.9,1c-0.7,0-1.3,0-1.9,0
	c-1.3,0-2.2-1-2.2-2.1s1-2,2.2-2.1c0.7,0,1.4,0,1.9,0c1,0.1,1.7,0.4,1.9,1.2c0.1,0.2,0.2,0.2,0.3,0.2c2.6,0.1,4.8-0.8,6.3-2.7
	c1.3-1.6,2.6-3.2,4-4.8c0.9-1,1.4-2.3,1.4-3.6C70.1,50.7,70.1,50.2,70.1,49.5z"/>
</svg>
