<?xml version="1.0" encoding="utf-8"?>
<!-- Generator: Adobe Illustrator 26.0.2, SVG Export Plug-In . SVG Version: 6.00 Build 0)  -->
<svg version="1.1" id="Layer_1" xmlns="http://www.w3.org/2000/svg" xmlns:xlink="http://www.w3.org/1999/xlink" x="0px" y="0px"
	 viewBox="0 0 100 100" style="enable-background:new 0 0 100 100;" xml:space="preserve">
<style type="text/css">
	.st0{fill:#34C6F4;}
	.st1{font-family:'MyriadPro-Regular';}
	.st2{font-size:17.0079px;}
</style>
<text transform="matrix(1 0 0 1 25.2795 84.9919)" class="st0 st1 st2">setting</text>
<path class="st0" d="M58.6,17.5L56,18.6l0.7,3.3C56,22.4,55.5,23,55,23.6l-3.3-0.8l-1.1,2.6l2.8,1.8c-0.1,0.8-0.1,1.6,0,2.4
	l-2.8,1.9l1,2.6l3.3-0.7c0.5,0.6,1.1,1.2,1.7,1.7l-0.8,3.3l2.6,1.1l1.9-2.9c0.8,0.1,1.7,0.1,2.4,0l1.8,2.9l2.6-1l-0.8-3.3
	c0.6-0.5,1.2-1.1,1.7-1.7l3.4,0.8l1.1-2.6l-2.9-1.8c0.1-0.8,0.1-1.6,0-2.4l2.9-1.9L71.4,23l-3.3,0.8c-0.5-0.7-1-1.2-1.7-1.7l0.8-3.3
	l-2.5-1.3l-1.8,2.8c-0.8-0.1-1.6-0.1-2.4,0L58.6,17.5z M61.6,24.5c0.5,0,1,0.1,1.5,0.3c2,0.8,3,3.1,2.1,5.1S62,32.9,60,32
	c-2-0.8-3-3.2-2.1-5.2C58.6,25.4,60.1,24.6,61.6,24.5z M40.5,32.9l-0.7,4.4c-1.1,0.3-2,0.7-2.9,1.2l-3.6-2.6l-2.7,2.6l2.5,3.6
	c-0.5,0.9-0.9,1.9-1.2,3l-4.4,0.7v3.7l4.4,0.8c0.3,1.1,0.6,2,1.2,2.9l-2.6,3.6l2.6,2.6l3.6-2.5c0.9,0.5,1.9,0.9,2.9,1.2l0.7,4.4H44
	l0.8-4.4c1-0.3,2-0.7,2.9-1.3l3.6,2.6l2.6-2.6l-2.6-3.6c0.5-0.9,0.9-1.9,1.2-2.9l4.6-0.8v-3.7l-4.4-0.7c-0.3-1-0.7-2-1.2-2.9
	l2.6-3.7l-2.6-2.6l-3.6,2.6C47,38,46,37.5,45,37.2l-0.8-4.4L40.5,32.9L40.5,32.9z M42.4,42.6c2.8,0,5.1,2.3,5.1,5.1
	s-2.3,5.2-5.1,5.2s-5.2-2.3-5.2-5.2S39.6,42.6,42.4,42.6z"/>
</svg>
