<?xml version="1.0" encoding="utf-8"?>
<!-- Generator: Adobe Illustrator 26.0.2, SVG Export Plug-In . SVG Version: 6.00 Build 0)  -->
<svg version="1.1" id="Layer_1" xmlns="http://www.w3.org/2000/svg" xmlns:xlink="http://www.w3.org/1999/xlink" x="0px" y="0px"
	 viewBox="0 0 100 100" style="enable-background:new 0 0 100 100;" xml:space="preserve">
<style type="text/css">
	.st0{fill:#34C6F4;}
	.st1{font-family:'MyriadPro-Regular';}
	.st2{font-size:21.2598px;}
</style>
<text transform="matrix(1 0 0 1 13.4335 86.2394)" class="st0 st1 st2">working</text>
<g>
	<path class="st0" d="M71.6,39.5c-5.1,1.5-10.3,3.1-15.4,4.6c-0.9,0.3-1.8,0.6-2.8,0.8c-0.1,0-0.1,0.1-0.1,0.2c0,0.3,0,0.6,0,0.9
		c-0.1,0.8-0.8,1.4-1.5,1.4c-0.1,0-0.2,0-0.4,0c-1,0-2,0-2.9,0c-0.4,0-0.8-0.1-1.1-0.3c-0.4-0.3-0.6-0.7-0.7-1.2c0-0.2,0-0.5,0-0.7
		c0-0.1,0-0.2-0.2-0.2c-1.2-0.3-2.3-0.7-3.5-1c-4.4-1.3-8.7-2.6-13.1-3.9c-0.5-0.2-1.1-0.3-1.6-0.5c-0.2-0.1-0.2-0.1-0.2,0.1
		c0,4.3,0,8.7,0,13c0,0.9,0,1.8,0,2.7c0,0.9,0.7,1.8,1.5,2.1c0.1,0,0.3,0.1,0.4,0.1c13.2,0,26.5,0,39.7,0c0.3,0,0.5-0.1,0.7-0.2
		c0.8-0.4,1.2-1,1.3-1.8c0-0.1,0-0.3,0-0.4c0-5.2,0-10.3,0-15.5C71.9,39.4,71.9,39.4,71.6,39.5z"/>
	<path class="st0" d="M72.5,30.7c0-1-0.8-1.8-1.8-1.9c-0.1,0-0.3,0-0.4,0c-13.5,0-27,0-40.6,0c-0.9,0-1.6,0.4-2,1.2
		c-0.2,0.3-0.2,0.6-0.3,0.9c0,0,0,0.1,0,0.1c0,2.4,0,4.7,0,7.1c0.1,0.4,0.3,0.6,0.6,0.7c5.3,1.6,10.5,3.1,15.8,4.7
		c0.9,0.3,1.8,0.5,2.7,0.8c0.1,0,0.2,0,0.2-0.1c0.3-0.7,0.8-1,1.6-1c1.1,0,2.1,0,3.2,0c0.7,0,1.3,0.4,1.6,1.1c0,0.1,0.1,0.1,0.2,0.1
		c5.7-1.7,11.3-3.4,17-5c0.5-0.2,1-0.3,1.6-0.5c0.4-0.1,0.6-0.4,0.6-0.8C72.5,35.5,72.5,33.1,72.5,30.7z"/>
	<path class="st0" d="M48.4,46.7c0.5,0,1,0,1.5,0c0.5,0,1.1,0,1.6,0c0.6,0,1-0.4,1-1c0-0.3,0-0.6,0-0.9c0-0.3-0.2-0.6-0.4-0.8
		c-0.2-0.2-0.4-0.2-0.7-0.2c-0.7,0-1.5,0-2.2,0c-0.3,0-0.7,0-1,0c-0.5,0-0.9,0.4-0.9,0.9c0,0.3,0,0.6,0,0.9
		C47.4,46.3,47.8,46.7,48.4,46.7z"/>
	<path class="st0" d="M44.5,26c0-0.5,0.4-0.8,0.8-0.8h9.4c0.5,0,0.8,0.4,0.8,0.8v1.9h2.7V26c0-2-1.6-3.5-3.5-3.5h-9.4
		c-2,0-3.5,1.6-3.5,3.5v1.9h2.7V26z"/>
</g>
</svg>
